<mxfile host="app.diagrams.net" modified="2024-05-29T17:16:04.371Z" agent="Mozilla/5.0 (Windows NT 10.0; Win64; x64) AppleWebKit/537.36 (KHTML, like Gecko) Chrome/125.0.0.0 Safari/537.36 Edg/125.0.0.0" etag="ZxxQTkidztXQsd-sUKfm" version="24.4.9" type="device">
  <diagram name="Страница — 1" id="DIJlp7tnzuS37XVsPfIc">
    <mxGraphModel dx="1487" dy="1543" grid="1" gridSize="10" guides="1" tooltips="1" connect="1" arrows="1" fold="1" page="1" pageScale="1" pageWidth="827" pageHeight="1169" math="0" shadow="0">
      <root>
        <mxCell id="0" />
        <mxCell id="1" parent="0" />
        <mxCell id="M3KhHOgO-HuE98DU4ReT-1" value="3" style="whiteSpace=wrap;html=1;aspect=fixed;" parent="1" vertex="1">
          <mxGeometry x="-680" y="120" width="80" height="80" as="geometry" />
        </mxCell>
        <mxCell id="M3KhHOgO-HuE98DU4ReT-2" value="4" style="whiteSpace=wrap;html=1;aspect=fixed;" parent="1" vertex="1">
          <mxGeometry x="-680" y="-40" width="80" height="80" as="geometry" />
        </mxCell>
        <mxCell id="M3KhHOgO-HuE98DU4ReT-3" value="5" style="whiteSpace=wrap;html=1;aspect=fixed;" parent="1" vertex="1">
          <mxGeometry x="-360" y="120" width="80" height="80" as="geometry" />
        </mxCell>
        <mxCell id="M3KhHOgO-HuE98DU4ReT-4" value="1" style="whiteSpace=wrap;html=1;aspect=fixed;" parent="1" vertex="1">
          <mxGeometry x="-680" y="440" width="80" height="80" as="geometry" />
        </mxCell>
        <mxCell id="M3KhHOgO-HuE98DU4ReT-5" value="7" style="whiteSpace=wrap;html=1;aspect=fixed;" parent="1" vertex="1">
          <mxGeometry x="-520" y="120" width="80" height="80" as="geometry" />
        </mxCell>
        <mxCell id="M3KhHOgO-HuE98DU4ReT-6" value="10" style="whiteSpace=wrap;html=1;aspect=fixed;" parent="1" vertex="1">
          <mxGeometry x="-360" y="440" width="80" height="80" as="geometry" />
        </mxCell>
        <mxCell id="M3KhHOgO-HuE98DU4ReT-7" value="6" style="whiteSpace=wrap;html=1;aspect=fixed;" parent="1" vertex="1">
          <mxGeometry x="-360" y="-40" width="80" height="80" as="geometry" />
        </mxCell>
        <mxCell id="1uYi_ieeCgbg2i5ZVmK_-13" value="100" style="endArrow=classic;startArrow=classic;html=1;rounded=0;exitX=0.5;exitY=0;exitDx=0;exitDy=0;entryX=0.5;entryY=1;entryDx=0;entryDy=0;" parent="1" source="M3KhHOgO-HuE98DU4ReT-3" target="M3KhHOgO-HuE98DU4ReT-7" edge="1">
          <mxGeometry x="0.0159" width="50" height="50" relative="1" as="geometry">
            <mxPoint x="-630" y="210" as="sourcePoint" />
            <mxPoint x="-630" y="130" as="targetPoint" />
            <mxPoint as="offset" />
          </mxGeometry>
        </mxCell>
        <mxCell id="1uYi_ieeCgbg2i5ZVmK_-14" value="100" style="endArrow=classic;startArrow=classic;html=1;rounded=0;exitX=0.5;exitY=0;exitDx=0;exitDy=0;entryX=0.5;entryY=1;entryDx=0;entryDy=0;" parent="1" source="MsNE0pX02MUaJKzahq33-3" target="M3KhHOgO-HuE98DU4ReT-3" edge="1">
          <mxGeometry width="50" height="50" relative="1" as="geometry">
            <mxPoint x="-620" y="220" as="sourcePoint" />
            <mxPoint x="-620" y="140" as="targetPoint" />
          </mxGeometry>
        </mxCell>
        <mxCell id="MsNE0pX02MUaJKzahq33-1" value="8" style="whiteSpace=wrap;html=1;aspect=fixed;" vertex="1" parent="1">
          <mxGeometry x="-520" y="280" width="80" height="80" as="geometry" />
        </mxCell>
        <mxCell id="MsNE0pX02MUaJKzahq33-2" value="2" style="whiteSpace=wrap;html=1;aspect=fixed;" vertex="1" parent="1">
          <mxGeometry x="-680" y="280" width="80" height="80" as="geometry" />
        </mxCell>
        <mxCell id="MsNE0pX02MUaJKzahq33-3" value="9" style="whiteSpace=wrap;html=1;aspect=fixed;" vertex="1" parent="1">
          <mxGeometry x="-360" y="280" width="80" height="80" as="geometry" />
        </mxCell>
        <mxCell id="MsNE0pX02MUaJKzahq33-7" value="100" style="endArrow=classic;startArrow=classic;html=1;rounded=0;exitX=0.5;exitY=1;exitDx=0;exitDy=0;entryX=0.508;entryY=-0.044;entryDx=0;entryDy=0;entryPerimeter=0;" edge="1" parent="1" source="M3KhHOgO-HuE98DU4ReT-2" target="M3KhHOgO-HuE98DU4ReT-1">
          <mxGeometry x="0.0159" width="50" height="50" relative="1" as="geometry">
            <mxPoint x="-514" y="89" as="sourcePoint" />
            <mxPoint x="-590" y="90" as="targetPoint" />
            <mxPoint as="offset" />
          </mxGeometry>
        </mxCell>
        <mxCell id="MsNE0pX02MUaJKzahq33-9" value="100" style="endArrow=classic;startArrow=classic;html=1;rounded=0;exitX=0.5;exitY=1;exitDx=0;exitDy=0;entryX=0.5;entryY=0;entryDx=0;entryDy=0;" edge="1" parent="1" source="MsNE0pX02MUaJKzahq33-2" target="M3KhHOgO-HuE98DU4ReT-4">
          <mxGeometry x="0.0159" width="50" height="50" relative="1" as="geometry">
            <mxPoint x="-620" y="140" as="sourcePoint" />
            <mxPoint x="-619" y="166" as="targetPoint" />
            <mxPoint as="offset" />
          </mxGeometry>
        </mxCell>
        <mxCell id="MsNE0pX02MUaJKzahq33-10" value="142" style="endArrow=classic;startArrow=classic;html=1;rounded=0;exitX=1;exitY=0;exitDx=0;exitDy=0;entryX=0;entryY=1;entryDx=0;entryDy=0;" edge="1" parent="1" source="M3KhHOgO-HuE98DU4ReT-4" target="MsNE0pX02MUaJKzahq33-1">
          <mxGeometry x="0.0159" width="50" height="50" relative="1" as="geometry">
            <mxPoint x="-610" y="150" as="sourcePoint" />
            <mxPoint x="-609" y="176" as="targetPoint" />
            <mxPoint as="offset" />
          </mxGeometry>
        </mxCell>
        <mxCell id="MsNE0pX02MUaJKzahq33-11" value="142" style="endArrow=classic;startArrow=classic;html=1;rounded=0;exitX=1;exitY=1;exitDx=0;exitDy=0;entryX=0;entryY=0;entryDx=0;entryDy=0;" edge="1" parent="1" source="MsNE0pX02MUaJKzahq33-1" target="M3KhHOgO-HuE98DU4ReT-6">
          <mxGeometry x="0.0159" width="50" height="50" relative="1" as="geometry">
            <mxPoint x="-590" y="410" as="sourcePoint" />
            <mxPoint x="-512" y="406" as="targetPoint" />
            <mxPoint as="offset" />
          </mxGeometry>
        </mxCell>
        <mxCell id="MsNE0pX02MUaJKzahq33-15" value="100" style="endArrow=classic;startArrow=classic;html=1;rounded=0;exitX=0.5;exitY=1;exitDx=0;exitDy=0;entryX=0.5;entryY=0;entryDx=0;entryDy=0;" edge="1" parent="1" source="M3KhHOgO-HuE98DU4ReT-1" target="MsNE0pX02MUaJKzahq33-2">
          <mxGeometry x="0.0159" width="50" height="50" relative="1" as="geometry">
            <mxPoint x="-630" y="90" as="sourcePoint" />
            <mxPoint x="-629" y="126" as="targetPoint" />
            <mxPoint as="offset" />
          </mxGeometry>
        </mxCell>
        <mxCell id="MsNE0pX02MUaJKzahq33-17" value="100" style="endArrow=classic;startArrow=classic;html=1;rounded=0;exitX=0.508;exitY=-0.038;exitDx=0;exitDy=0;entryX=0.5;entryY=1;entryDx=0;entryDy=0;exitPerimeter=0;" edge="1" parent="1" source="M3KhHOgO-HuE98DU4ReT-6" target="MsNE0pX02MUaJKzahq33-3">
          <mxGeometry width="50" height="50" relative="1" as="geometry">
            <mxPoint x="-310" y="290" as="sourcePoint" />
            <mxPoint x="-310" y="210" as="targetPoint" />
          </mxGeometry>
        </mxCell>
        <mxCell id="MsNE0pX02MUaJKzahq33-18" value="142" style="endArrow=classic;startArrow=classic;html=1;rounded=0;exitX=1;exitY=1;exitDx=0;exitDy=0;entryX=0;entryY=0;entryDx=0;entryDy=0;" edge="1" parent="1" source="M3KhHOgO-HuE98DU4ReT-2" target="M3KhHOgO-HuE98DU4ReT-5">
          <mxGeometry x="0.0159" width="50" height="50" relative="1" as="geometry">
            <mxPoint x="-630" y="50" as="sourcePoint" />
            <mxPoint x="-629" y="126" as="targetPoint" />
            <mxPoint as="offset" />
          </mxGeometry>
        </mxCell>
        <mxCell id="MsNE0pX02MUaJKzahq33-19" value="142" style="endArrow=classic;startArrow=classic;html=1;rounded=0;exitX=0;exitY=1;exitDx=0;exitDy=0;entryX=1;entryY=0;entryDx=0;entryDy=0;" edge="1" parent="1" source="M3KhHOgO-HuE98DU4ReT-7" target="M3KhHOgO-HuE98DU4ReT-5">
          <mxGeometry x="0.0159" width="50" height="50" relative="1" as="geometry">
            <mxPoint x="-590" y="10" as="sourcePoint" />
            <mxPoint x="-513" y="168" as="targetPoint" />
            <mxPoint as="offset" />
          </mxGeometry>
        </mxCell>
        <mxCell id="MsNE0pX02MUaJKzahq33-20" value="100" style="endArrow=classic;startArrow=classic;html=1;rounded=0;exitX=0.5;exitY=1;exitDx=0;exitDy=0;entryX=0.52;entryY=-0.038;entryDx=0;entryDy=0;entryPerimeter=0;" edge="1" parent="1" source="M3KhHOgO-HuE98DU4ReT-5" target="MsNE0pX02MUaJKzahq33-1">
          <mxGeometry x="0.0159" width="50" height="50" relative="1" as="geometry">
            <mxPoint x="-350" y="10" as="sourcePoint" />
            <mxPoint x="-430" y="170" as="targetPoint" />
            <mxPoint as="offset" />
          </mxGeometry>
        </mxCell>
        <mxCell id="MsNE0pX02MUaJKzahq33-21" value="100" style="endArrow=classic;startArrow=classic;html=1;rounded=0;exitX=0;exitY=0.5;exitDx=0;exitDy=0;entryX=1;entryY=0.5;entryDx=0;entryDy=0;" edge="1" parent="1" source="M3KhHOgO-HuE98DU4ReT-5" target="M3KhHOgO-HuE98DU4ReT-1">
          <mxGeometry x="0.0119" width="50" height="50" relative="1" as="geometry">
            <mxPoint x="-630" y="50" as="sourcePoint" />
            <mxPoint x="-629" y="126" as="targetPoint" />
            <mxPoint as="offset" />
          </mxGeometry>
        </mxCell>
        <mxCell id="MsNE0pX02MUaJKzahq33-22" value="200" style="endArrow=classic;startArrow=classic;html=1;rounded=0;exitX=0;exitY=0.5;exitDx=0;exitDy=0;entryX=1;entryY=0.5;entryDx=0;entryDy=0;" edge="1" parent="1" source="M3KhHOgO-HuE98DU4ReT-7" target="M3KhHOgO-HuE98DU4ReT-2">
          <mxGeometry x="0.0159" width="50" height="50" relative="1" as="geometry">
            <mxPoint x="-510" y="170" as="sourcePoint" />
            <mxPoint x="-590" y="170" as="targetPoint" />
            <mxPoint as="offset" />
          </mxGeometry>
        </mxCell>
        <mxCell id="MsNE0pX02MUaJKzahq33-23" value="200" style="endArrow=classic;startArrow=classic;html=1;rounded=0;entryX=1;entryY=0.5;entryDx=0;entryDy=0;exitX=0;exitY=0.5;exitDx=0;exitDy=0;" edge="1" parent="1" source="M3KhHOgO-HuE98DU4ReT-6" target="M3KhHOgO-HuE98DU4ReT-4">
          <mxGeometry x="0.0159" width="50" height="50" relative="1" as="geometry">
            <mxPoint x="-400" y="480" as="sourcePoint" />
            <mxPoint x="-570" y="480" as="targetPoint" />
            <mxPoint as="offset" />
          </mxGeometry>
        </mxCell>
        <mxCell id="MsNE0pX02MUaJKzahq33-25" value="100" style="endArrow=classic;startArrow=classic;html=1;rounded=0;exitX=0;exitY=0.5;exitDx=0;exitDy=0;entryX=1;entryY=0.5;entryDx=0;entryDy=0;" edge="1" parent="1" source="M3KhHOgO-HuE98DU4ReT-3" target="M3KhHOgO-HuE98DU4ReT-5">
          <mxGeometry x="0.0119" width="50" height="50" relative="1" as="geometry">
            <mxPoint x="-513" y="331" as="sourcePoint" />
            <mxPoint x="-590" y="330" as="targetPoint" />
            <mxPoint as="offset" />
          </mxGeometry>
        </mxCell>
        <mxCell id="MsNE0pX02MUaJKzahq33-27" value="142" style="endArrow=classic;startArrow=classic;html=1;rounded=0;exitX=1;exitY=0;exitDx=0;exitDy=0;entryX=0;entryY=1;entryDx=0;entryDy=0;" edge="1" parent="1" source="MsNE0pX02MUaJKzahq33-2" target="M3KhHOgO-HuE98DU4ReT-5">
          <mxGeometry x="0.0159" width="50" height="50" relative="1" as="geometry">
            <mxPoint x="-590" y="450" as="sourcePoint" />
            <mxPoint x="-510" y="370" as="targetPoint" />
            <mxPoint as="offset" />
          </mxGeometry>
        </mxCell>
        <mxCell id="MsNE0pX02MUaJKzahq33-28" value="142" style="endArrow=classic;startArrow=classic;html=1;rounded=0;exitX=0;exitY=0;exitDx=0;exitDy=0;entryX=1;entryY=1;entryDx=0;entryDy=0;" edge="1" parent="1" source="MsNE0pX02MUaJKzahq33-1" target="M3KhHOgO-HuE98DU4ReT-1">
          <mxGeometry width="50" height="50" relative="1" as="geometry">
            <mxPoint x="-590" y="290" as="sourcePoint" />
            <mxPoint x="-510" y="210" as="targetPoint" />
            <mxPoint as="offset" />
          </mxGeometry>
        </mxCell>
        <mxCell id="MsNE0pX02MUaJKzahq33-29" value="142" style="endArrow=classic;startArrow=classic;html=1;rounded=0;exitX=0;exitY=0;exitDx=0;exitDy=0;entryX=1;entryY=1;entryDx=0;entryDy=0;" edge="1" parent="1" source="MsNE0pX02MUaJKzahq33-3" target="M3KhHOgO-HuE98DU4ReT-5">
          <mxGeometry x="0.0159" width="50" height="50" relative="1" as="geometry">
            <mxPoint x="-360" y="290" as="sourcePoint" />
            <mxPoint x="-440" y="210" as="targetPoint" />
            <mxPoint as="offset" />
          </mxGeometry>
        </mxCell>
        <mxCell id="MsNE0pX02MUaJKzahq33-31" value="142" style="endArrow=classic;startArrow=classic;html=1;rounded=0;exitX=1;exitY=0;exitDx=0;exitDy=0;entryX=-0.046;entryY=1.016;entryDx=0;entryDy=0;entryPerimeter=0;" edge="1" parent="1" source="MsNE0pX02MUaJKzahq33-1" target="M3KhHOgO-HuE98DU4ReT-3">
          <mxGeometry x="0.0159" width="50" height="50" relative="1" as="geometry">
            <mxPoint x="-350" y="290" as="sourcePoint" />
            <mxPoint x="-430" y="210" as="targetPoint" />
            <mxPoint as="offset" />
          </mxGeometry>
        </mxCell>
        <mxCell id="MsNE0pX02MUaJKzahq33-32" value="224" style="endArrow=classic;startArrow=classic;html=1;rounded=0;exitX=1;exitY=0;exitDx=0;exitDy=0;entryX=0;entryY=1;entryDx=0;entryDy=0;" edge="1" parent="1" source="M3KhHOgO-HuE98DU4ReT-4" target="M3KhHOgO-HuE98DU4ReT-5">
          <mxGeometry x="0.0159" width="50" height="50" relative="1" as="geometry">
            <mxPoint x="-590" y="450" as="sourcePoint" />
            <mxPoint x="-510" y="370" as="targetPoint" />
            <mxPoint as="offset" />
          </mxGeometry>
        </mxCell>
        <mxCell id="MsNE0pX02MUaJKzahq33-33" value="100" style="endArrow=classic;startArrow=classic;html=1;rounded=0;exitX=0;exitY=0.5;exitDx=0;exitDy=0;entryX=1;entryY=0.5;entryDx=0;entryDy=0;" edge="1" parent="1">
          <mxGeometry x="0.0119" width="50" height="50" relative="1" as="geometry">
            <mxPoint x="-520" y="290" as="sourcePoint" />
            <mxPoint x="-600" y="290" as="targetPoint" />
            <mxPoint as="offset" />
          </mxGeometry>
        </mxCell>
        <mxCell id="MsNE0pX02MUaJKzahq33-34" value="100" style="endArrow=classic;startArrow=classic;html=1;rounded=0;exitX=0;exitY=0.5;exitDx=0;exitDy=0;entryX=1;entryY=0.5;entryDx=0;entryDy=0;" edge="1" parent="1">
          <mxGeometry x="0.0119" width="50" height="50" relative="1" as="geometry">
            <mxPoint x="-360" y="290" as="sourcePoint" />
            <mxPoint x="-440" y="290" as="targetPoint" />
            <mxPoint as="offset" />
          </mxGeometry>
        </mxCell>
        <mxCell id="MsNE0pX02MUaJKzahq33-35" value="224" style="endArrow=classic;startArrow=classic;html=1;rounded=0;exitX=0;exitY=0;exitDx=0;exitDy=0;entryX=1;entryY=1;entryDx=0;entryDy=0;" edge="1" parent="1" source="M3KhHOgO-HuE98DU4ReT-6" target="M3KhHOgO-HuE98DU4ReT-5">
          <mxGeometry x="0.0159" width="50" height="50" relative="1" as="geometry">
            <mxPoint x="-590" y="450" as="sourcePoint" />
            <mxPoint x="-510" y="210" as="targetPoint" />
            <mxPoint as="offset" />
          </mxGeometry>
        </mxCell>
      </root>
    </mxGraphModel>
  </diagram>
</mxfile>
